HIERARCHY
ROOT Hips
{
	OFFSET 0.00000 0.00000 0.00000
	CHANNELS 6 Xposition Yposition Zposition Zrotation Yrotation Xrotation 
	JOINT LHipJoint
	{
		OFFSET 0 0 0
		CHANNELS 3 Zrotation Yrotation Xrotation
		JOINT LeftUpLeg
		{
			OFFSET 1.17584 -1.63585 1.00361
			CHANNELS 3 Zrotation Yrotation Xrotation
			JOINT LeftLeg
			{
				OFFSET 2.23889 -6.15131 0.00000
				CHANNELS 3 Zrotation Yrotation Xrotation
				JOINT LeftFoot
				{
					OFFSET 2.65161 -7.28525 0.00000
					CHANNELS 3 Zrotation Yrotation Xrotation
					JOINT LeftToeBase
					{
						OFFSET 0.24898 -0.68407 1.57235
						CHANNELS 3 Zrotation Yrotation Xrotation
						End Site
						{
							OFFSET 0.00000 -0.00000 0.85838
						}
					}
				}
			}
		}
	}
	JOINT RHipJoint
	{
		OFFSET 0 0 0
		CHANNELS 3 Zrotation Yrotation Xrotation
		JOINT RightUpLeg
		{
			OFFSET -1.15592 -1.63585 1.00361
			CHANNELS 3 Zrotation Yrotation Xrotation
			JOINT RightLeg
			{
				OFFSET -2.34071 -6.43104 0.00000
				CHANNELS 3 Zrotation Yrotation Xrotation
				JOINT RightFoot
				{
					OFFSET -2.59113 -7.11908 0.00000
					CHANNELS 3 Zrotation Yrotation Xrotation
					JOINT RightToeBase
					{
						OFFSET -0.17867 -0.49089 1.70981
						CHANNELS 3 Zrotation Yrotation Xrotation
						End Site
						{
							OFFSET -0.00000 -0.00000 0.89861
						}
					}
				}
			}
		}
	}
	JOINT LowerBack
	{
		OFFSET 0 0 0
		CHANNELS 3 Zrotation Yrotation Xrotation
		JOINT Spine
		{
			OFFSET -0.02255 1.90764 -0.16605
			CHANNELS 3 Zrotation Yrotation Xrotation
			JOINT Spine1
			{
				OFFSET -0.00365 1.92150 -0.04898
				CHANNELS 3 Zrotation Yrotation Xrotation
				JOINT Neck
				{
					OFFSET 0 0 0
					CHANNELS 3 Zrotation Yrotation Xrotation
					JOINT Neck1
					{
						OFFSET 0.00372 1.59170 0.08694
						CHANNELS 3 Zrotation Yrotation Xrotation
						JOINT Head
						{
							OFFSET 0.12558 1.58643 -0.08078
							CHANNELS 3 Zrotation Yrotation Xrotation
							End Site
							{
								OFFSET 0.04211 1.60835 -0.03803
							}
						}
					}
				}
				JOINT LeftShoulder
				{
					OFFSET 0 0 0
					CHANNELS 3 Zrotation Yrotation Xrotation
					JOINT LeftArm
					{
						OFFSET 3.69324 0.96316 0.19077
						CHANNELS 3 Zrotation Yrotation Xrotation
						JOINT LeftForeArm
						{
							OFFSET 4.87796 -0.00000 -0.00000
							CHANNELS 3 Zrotation Yrotation Xrotation
							JOINT LeftHand
							{
								OFFSET 3.23169 -0.00000 0.00000
								CHANNELS 3 Zrotation Yrotation Xrotation
								JOINT LeftFingerBase
								{
									OFFSET 0 0 0
									CHANNELS 3 Zrotation Yrotation Xrotation
									JOINT LeftHandIndex1
									{
										OFFSET 0.73132 -0.00000 0.00000
										CHANNELS 3 Zrotation Yrotation Xrotation
										End Site
										{
											OFFSET 0.58961 -0.00000 0.00000
										}
									}
								}
								JOINT LThumb
								{
									OFFSET 0 0 0
									CHANNELS 3 Zrotation Yrotation Xrotation
									End Site
									{
										OFFSET 0.59861 -0.00000 0.59861
									}
								}
							}
						}
					}
				}
				JOINT RightShoulder
				{
					OFFSET 0 0 0
					CHANNELS 3 Zrotation Yrotation Xrotation
					JOINT RightArm
					{
						OFFSET -3.66103 0.75145 0.08281
						CHANNELS 3 Zrotation Yrotation Xrotation
						JOINT RightForeArm
						{
							OFFSET -4.91430 -0.00000 0.00000
							CHANNELS 3 Zrotation Yrotation Xrotation
							JOINT RightHand
							{
								OFFSET -3.29093 -0.00000 0.00000
								CHANNELS 3 Zrotation Yrotation Xrotation
								JOINT RightFingerBase
								{
									OFFSET 0 0 0
									CHANNELS 3 Zrotation Yrotation Xrotation
									JOINT RightHandIndex1
									{
										OFFSET -0.54512 -0.00000 0.00000
										CHANNELS 3 Zrotation Yrotation Xrotation
										End Site
										{
											OFFSET -0.43949 -0.00000 0.00000
										}
									}
								}
								JOINT RThumb
								{
									OFFSET 0 0 0
									CHANNELS 3 Zrotation Yrotation Xrotation
									End Site
									{
										OFFSET -0.44620 -0.00000 0.44620
									}
								}
							}
						}
					}
				}
			}
		}
	}
}
MOTION
Frames: 9
Frame Time: .0083333
12.6834 18.1529 -2.8412 0 0 0 0 0 0 -21 0 0 0 0 0 0 0 0 0 0 0 0 0 0 21 0 0 0 0 0 0 0 0 0 0 0 0 0 0 0 0 0 0 0 0 0 0 -16 0 0 21 0 0 11 0 0 0 -8 0 0 0 0 0 0 0 0 0 0 0 0 0 0 0 0 0 0 0 0 8 0 0 0 0 0 0 0 0 0 0 0 0 0 0 0 0 0
12.6834 18.1529 -2.8412 -30.8653 -65.3125 -147.9940 0.0000 0.0000 0.0000 -21.0290 -0.6745 -33.4009 11.4929 18.1680 64.3723 0.1697 9.2500 9.1889 7.9235 16.0627 52.2866 0.0000 0.0000 0.0000 7.1025 1.8073 14.7037 -6.2900 -14.7036 46.1347 -0.5561 2.1892 15.0505 -2.2902 9.4461 -27.2011 4.9540 5.2893 -4.3527 2.7356 6.8955 -3.8749 0.2937 3.3845 -1.3333 -18.0796 4.2389 -10.7034 1.0027 6.5891 -11.5385 3.1937 3.7387 -2.5046 -0.0000 -0.0000 0.0000 49.6365 -33.4037 -76.0386 29.2217 -40.2169 -10.9036 -0.0000 -0.0000 10.7614 83.3001 -40.0989 -79.6642 -7.1250 0.0000 -0.0000 23.7100 -48.6867 -34.2385 -0.0000 -0.0000 0.0000 -12.6092 53.2467 -35.5151 -47.8436 52.0879 -24.4623 0.0000 -0.0000 -28.2942 -51.8815 -32.9971 34.7640 7.1250 -0.0000 -0.0000 -37.7283 -73.5230 26.4215
12.7541 18.1387 -2.8979 -35.9905 -68.7704 -142.7540 0.0000 0.0000 0.0000 -20.5060 0.1088 -33.6248 11.4867 18.1652 64.3524 0.3762 1.9187 11.0792 4.7504 13.0971 39.7329 0.0000 0.0000 0.0000 7.4529 1.4198 14.1898 -6.3081 -14.7204 46.2059 -0.2567 0.2888 9.6793 -3.6433 11.6700 -34.5742 7.9914 8.1727 -3.1596 -3.7767 10.4276 -5.5307 -8.0209 4.7838 -1.9030 -2.0890 2.6353 -8.4587 -1.7571 3.6491 -11.7648 -0.1888 1.9181 -2.2960 0.0000 0.0000 0.0000 64.0633 -38.6276 -83.6752 30.3498 -41.1914 -11.6393 -0.0000 -0.0000 9.2728 81.3187 -40.2980 -76.7168 -7.1250 0.0000 -0.0000 22.3111 -46.7936 -32.2664 0.0000 0.0000 0.0000 -4.9727 47.6984 -41.2389 -40.6443 48.4470 -18.9200 0.0000 -0.0000 -24.8159 -47.9317 -31.7171 30.2200 7.1250 -0.0000 -0.0000 -27.2054 -70.9907 17.2592
12.8166 18.1285 -2.9634 -44.2218 -71.7518 -134.7250 0.0000 0.0000 0.0000 -20.3965 0.9311 -33.6081 11.3558 18.1049 63.9318 -0.0423 -7.0336 8.9591 0.2488 3.2094 8.8624 0.0000 0.0000 0.0000 7.3365 0.9591 13.9327 -6.3276 -14.7385 46.2827 -0.1740 0.0962 7.9130 -2.6697 10.1401 -29.4315 5.7694 5.6200 -4.1479 -3.3514 7.0882 -4.4981 -6.4179 3.2829 -1.2235 4.5500 5.5070 -9.9165 -4.7549 6.9341 -12.1381 -2.1788 3.3423 -1.8582 0.0000 -0.0000 0.0000 60.1992 -33.9727 -76.5702 31.0644 -41.7885 -12.1127 -0.0000 -0.0000 8.4333 80.1339 -39.4784 -74.7011 -7.1250 0.0000 -0.0000 22.1582 -45.1113 -32.1239 0.0000 -0.0000 0.0000 -13.8193 53.7222 -50.1377 -36.4773 45.8386 -15.8639 0.0000 -0.0000 -25.1907 -47.8192 -32.2796 30.5140 7.1250 -0.0000 -0.0000 -27.2491 -71.5839 17.6361
12.8998 18.0693 -3.0406 -55.8474 -74.1553 -123.3640 0.0000 0.0000 0.0000 -20.4875 1.3745 -33.1790 11.1712 18.0179 63.3363 -0.2215 -9.1203 7.3535 0.0346 -1.2003 -3.3001 0.0000 0.0000 0.0000 7.2187 0.6097 13.7677 -6.3332 -14.7437 46.3048 -0.1012 0.1421 6.0599 -1.6853 8.1773 -23.2538 5.7819 5.8750 -3.7663 -3.2273 7.4466 -4.6687 -6.3229 3.4455 -1.5736 0.7679 4.3853 -9.5400 -2.9329 5.8113 -12.1149 -0.9923 2.9011 -2.1173 0.0000 0.0000 0.0000 59.5077 -35.4162 -76.9000 31.2560 -41.9459 -12.2406 -0.0000 -0.0000 7.0337 80.2566 -39.3328 -74.8416 -7.1250 0.0000 -0.0000 22.3312 -45.1449 -32.3858 0.0000 0.0000 0.0000 -19.8460 52.0151 -53.2576 -32.9978 43.3283 -13.4205 0.0000 -0.0000 -26.3801 -49.8902 -33.0068 32.8897 7.1250 -0.0000 -0.0000 -32.5722 -72.9945 22.2468
12.9738 18.0430 -3.1098 -70.3952 -75.8165 -108.9710 0.0000 0.0000 0.0000 -20.3485 2.0280 -33.1436 11.0290 17.9493 62.8758 -0.4137 -11.4167 5.8666 0.5748 -4.8553 -13.4963 0.0000 0.0000 0.0000 7.0311 0.2306 13.6156 -6.3425 -14.7522 46.3413 -0.0402 0.1516 3.8457 -1.0644 6.5590 -18.4153 5.5507 5.5349 -3.7339 -3.7710 6.9944 -4.5263 -6.7856 3.2274 -1.4708 2.2763 4.4920 -10.1528 -3.1333 5.7715 -11.9340 -1.2831 2.7921 -1.9115 0.0000 0.0000 0.0000 59.5859 -35.2626 -75.9250 31.8712 -42.4442 -12.6538 -0.0000 -0.0000 5.8590 79.7789 -39.0248 -74.0204 -7.1250 0.0000 -0.0000 22.2429 -44.4649 -32.2805 0.0000 0.0000 0.0000 -25.0181 51.9168 -58.6641 -29.8211 40.7396 -11.2927 0.0000 -0.0000 -26.6606 -50.9509 -33.4436 34.1915 7.1250 -0.0000 -0.0000 -35.7026 -73.7578 25.0810
13.0526 18.0117 -3.1811 -87.3690 -76.3489 -92.1338 0.0000 0.0000 0.0000 -20.2395 2.6428 -33.1152 10.8705 17.8711 62.3603 -0.5279 -12.7505 5.0423 1.1098 -6.6929 -18.8087 0.0000 0.0000 0.0000 6.8101 -0.0543 13.5276 -6.3450 -14.7545 46.3510 -0.0126 0.3609 2.2876 -0.4758 4.4236 -12.2716 5.3025 5.2058 -3.6860 -3.9568 6.5710 -4.4373 -6.8676 3.0266 -1.4763 2.1899 4.3612 -10.5265 -2.9321 5.5812 -11.6740 -1.1920 2.6823 -1.7784 -0.0000 -0.0000 0.0000 58.9118 -35.3571 -74.8791 32.4402 -42.8953 -13.0395 -0.0000 -0.0000 4.7182 79.5615 -38.6825 -73.5763 -7.1250 0.0000 -0.0000 22.3320 -44.0215 -32.4336 -0.0000 -0.0000 0.0000 -29.4583 51.5670 -62.3095 -27.5822 38.7288 -9.8612 0.0000 -0.0000 -27.5021 -52.6723 -33.8571 36.1517 7.1250 -0.0000 -0.0000 -41.0139 -74.6239 29.8050
13.1375 17.9747 -3.2536 -104.0900 -75.6936 -75.5052 0.0000 0.0000 0.0000 -20.0856 3.2110 -33.1405 10.7294 17.8001 61.8996 -0.5889 -13.4478 4.7963 1.3487 -7.3521 -20.7628 0.0000 0.0000 0.0000 6.6404 -0.2001 13.4610 -6.3549 -14.7636 46.3898 -0.0022 0.5897 1.2924 -0.1796 2.7297 -7.5271 5.1875 5.0526 -3.6592 -4.1552 6.3708 -4.4305 -7.0261 2.9281 -1.5054 1.7256 4.0081 -10.6834 -2.6374 5.1320 -11.3402 -1.0200 2.4613 -1.6736 -0.0000 -0.0000 0.0000 58.4085 -35.8920 -74.2744 33.0305 -43.3534 -13.4430 -0.0000 -0.0000 3.5986 79.4676 -38.3514 -73.3194 -7.1250 0.0000 -0.0000 22.4856 -43.7074 -32.6800 -0.0000 -0.0000 0.0000 -32.1152 50.9502 -64.2592 -26.0984 37.3057 -8.9472 0.0000 -0.0000 -28.3774 -54.4963 -34.0559 38.1314 7.1250 -0.0000 -0.0000 -46.9273 -75.2087 35.0208
13.2286 17.9318 -3.3272 -118.2530 -74.0436 -61.3949 0.0000 0.0000 0.0000 -19.8631 3.7590 -33.1982 10.5807 17.7237 61.4121 -0.6166 -13.7523 4.9464 1.3205 -7.2780 -20.5415 0.0000 0.0000 0.0000 6.5592 -0.1854 13.4068 -6.3751 -14.7823 46.4693 0.0008 0.7687 0.9111 -0.0813 1.8395 -5.0624 5.0980 4.8927 -3.6925 -4.3474 6.1592 -4.4320 -7.1883 2.8243 -1.5106 1.3947 3.6857 -10.7618 -2.4360 4.7132 -10.9561 -0.9014 2.2545 -1.5571 0.0000 0.0000 0.0000 57.8897 -36.4311 -73.6557 33.6767 -43.8438 -13.8886 -0.0000 -0.0000 2.4821 79.3824 -38.0154 -73.0705 -7.1250 0.0000 -0.0000 22.6440 -43.3953 -32.9337 0.0000 0.0000 0.0000 -33.4963 50.5015 -65.2183 -25.2143 36.4223 -8.4168 0.0000 -0.0000 -29.0724 -56.0246 -34.0967 39.7564 7.1250 -0.0000 -0.0000 -52.0587 -75.4999 39.5355
